<svg width="1080" height="1080" viewBox="0 0 1080 1080" fill="none" xmlns="http://www.w3.org/2000/svg">
<path d="M261.441 406.146L89.7634 406.196L262.204 234.47L261.441 406.146Z" fill="#9D13BF"/>
<path fill-rule="evenodd" clip-rule="evenodd" d="M261 235.663V406H672.121C662.859 386.268 657.535 363.178 657.535 338.5C657.535 295.9 673.401 258.031 698 234H262.663L261 235.663Z" fill="#9D13BF"/>
<path d="M890 334.5C890 390.557 844.557 436 788.5 436C732.443 436 687 390.557 687 334.5C687 278.443 732.443 233 788.5 233C844.557 233 890 278.443 890 334.5Z" fill="#9D13BF"/>
<path d="M976 359C976 373.912 963.912 386 949 386C934.088 386 922 373.912 922 359C922 344.088 934.088 332 949 332C963.912 332 976 344.088 976 359Z" fill="#9D13BF"/>
<path d="M960 478C960 510.585 933.585 537 901 537C868.415 537 842 510.585 842 478C842 445.415 868.415 419 901 419C933.585 419 960 445.415 960 478Z" fill="#9D13BF"/>
<path d="M870 313C870 342.271 846.271 366 817 366C787.729 366 764 342.271 764 313C764 283.729 787.729 260 817 260C846.271 260 870 283.729 870 313Z" fill="#B528D8"/>
<path d="M920 495C920 509.912 907.912 522 893 522C878.088 522 866 509.912 866 495C866 480.088 878.088 468 893 468C907.912 468 920 480.088 920 495Z" fill="#B528D8"/>
<path d="M969 353C969 359.075 964.075 364 958 364C951.925 364 947 359.075 947 353C947 346.925 951.925 342 958 342C964.075 342 969 346.925 969 353Z" fill="#B528D8"/>
<path fill-rule="evenodd" clip-rule="evenodd" d="M550.163 400L400 400V890H611V807.879C510.911 786.17 436 697.985 436 592.5C436 509.802 482.042 437.737 550.163 400Z" fill="#9D13BF"/>
<path fill-rule="evenodd" clip-rule="evenodd" d="M661.303 375.386C657.067 375.13 652.798 375 648.5 375C530.587 375 435 472.826 435 593.5C435 701.439 511.476 791.097 612 808.819V405H671.712C667.304 395.723 663.79 385.801 661.303 375.386Z" fill="#B528D8"/>
</svg>
